{"title":"Hoe Duur Was de Suiker 2013 DVD9rip Dutch English sub Klam","uid":9457801,"size":2057334777,"categoryP":"video","categoryS":"movies","magnet":"?xt=urn:btih:17cfc9e7e38acb38cb4ceae1ba4e7f0ff9485d85&amp;dn=Hoe+Duur+Was+de+Suiker+2013+DVD9rip+Dutch+English+sub+Klam&amp;tr=udp%3A%2F%2Ftracker.openbittorrent.com%3A80&amp;tr=udp%3A%2F%2Fopen.demonii.com%3A1337&amp;tr=udp%3A%2F%2Ftracker.coppersurfer.tk%3A6969&amp;tr=udp%3A%2F%2Fexodus.desync.com%3A6969","seeders":1,"leechers":0,"uploader":"Klambake","files":-1,"time":1389299308,"description":"With: Yootha Wong-Loi-Sing, Gaite Jansen and Benja Bruijning\n\nHet verhaal van twee halfzusjes in het achttiende-eeuwse Suriname: de blanke Sarith en haar lijfslavin Mini-Mini. Terwijl Sarith verbitterd raakt door het harde leven in de kolonie, krijgt Mini-Mini haar eigen kans op geluk. Kan en durft ze die te grijpen ten koste van haar meesteres en halfzus?\n\nIt is the 18th century in Surinam, former colony of the Netherlands, where wealthy white families keep black slaves to work in their houses or on their fields. Little rich girl Sarith grows up in luxury, with her own slave Mini-Mini by her side. As Sarith and Mini-Mini grow older, their different societal positions as slave-owner and slave is what both binds and separates them.\n\nWith ful soft English subs in the download\n &lt;a href=&quot;\nhttp://www.imdb.com/title/tt2691498&quot; rel=&quot;nofollow&quot; target=&quot;_NEW&quot;&gt;\nhttp://www.imdb.com/title/tt2691498&lt;/a&gt;\t\n\n--------------------- Dutch Friends 4ever ---------------------\n---------------------------------------------------------------\n- Bezoek ook eens mijn vrienden op: &lt;a href=&quot; http://www.Film-Test.nl&quot; rel=&quot;nofollow&quot; target=&quot;_NEW&quot;&gt; http://www.Film-Test.nl&lt;/a&gt; --\n----- voor mijn Nederlandse Sync. ondertitels ---- en meer ----\n------- http://www.Film-Test.nl ---- Over Films en meer -------\n---------------------------------------------------------------\n\nGeneral:\n\nComplete name                    : Hoe Duur Was de SuikerHoe Duur Was de Suiker.avi\nFormat                           : AVI\nFormat/Info                      : Audio Video Interleave\nFile size                        : 1.92 GiB\nDuration                         : 2h 0mn\nOverall bit rate                 : 2 275 Kbps\n\nVideo:\n\nFormat                           : MPEG-4 Visual\nFormat profile                   : Simple@L3\nFormat settings, BVOP            : No\nFormat settings, QPel            : No\nFormat settings, GMC             : No warppoints\nFormat settings, Matrix          : Default (H.263)\nCodec ID                         : XVID\nCodec ID/Hint                    : XviD\nDuration                         : 2h 0mn\nBit rate                         : 1 816 Kbps\nWidth                            : 720 pixels\nHeight                           : 304 pixels\nDisplay aspect ratio             : 2.35:1\nFrame rate                       : 25.000 fps\nColor space                      : YUV\nChroma subsampling               : 4:2:0\nBit depth                        : 8 bits\nScan type                        : Progressive\nCompression mode                 : Lossy\nBits/(Pixel*Frame)               : 0.332\nStream size                      : 1.53 GiB (80%)\nWriting library                  : XviD 1.1.2 (UTC 2006-11-01)\n\nAudio:\n\nFormat                           : AC-3\nFormat/Info                      : Audio Coding 3\nMode extension                   : CM (complete main)\nCodec ID                         : 2000\nDuration                         : 2h 0mn\nBit rate mode                    : Constant\nBit rate                         : 448 Kbps\nChannel(s)                       : 6 channels\nChannel positions                : Front: L C R, Side: L R, LFE\nSampling rate                    : 48.0 KHz\nBit depth                        : 16 bits\nCompression mode                 : Lossy\nStream size                      : 386 MiB (20%)\nAlignment                        : Aligned on interleaves\nInterleave, duration             : 32 ms (0.80 video frame)","torrent":{"xt":"urn:btih:17cfc9e7e38acb38cb4ceae1ba4e7f0ff9485d85","amp;dn":"Hoe+Duur+Was+de+Suiker+2013+DVD9rip+Dutch+English+sub+Klam","amp;tr":["udp%3A%2F%2Ftracker.openbittorrent.com%3A80","udp%3A%2F%2Fopen.demonii.com%3A1337","udp%3A%2F%2Ftracker.coppersurfer.tk%3A6969","udp%3A%2F%2Fexodus.desync.com%3A6969"],"infoHash":"17cfc9e7e38acb38cb4ceae1ba4e7f0ff9485d85","infoHashBuffer":{"type":"Buffer","data":[23,207,201,231,227,138,203,56,203,76,234,225,186,78,127,15,249,72,93,133]},"announce":[],"urlList":[]}}